<svg width="35" height="24" viewBox="0 0 35 24" fill="none" xmlns="http://www.w3.org/2000/svg">
<rect x="0.243409" y="0.243409" width="33.5905" height="22.8805" rx="2.6775" fill="white" stroke="#EAEBED" stroke-width="0.486818"/>
<path fill-rule="evenodd" clip-rule="evenodd" d="M9.73637 11.2624C9.73637 15.0323 12.8109 18.1068 16.6174 18.1068C17.0846 18.1068 17.5518 18.0659 18.0886 18.0189C18.6873 17.9665 19.3725 17.9065 20.2409 17.8872C21.5585 17.8872 22.986 18.363 24.5598 19.7538C24.7062 19.9002 24.9259 19.7172 24.7794 19.5342C23.2056 17.5944 21.7782 17.2284 20.3507 16.899C18.5939 16.4963 17.6788 15.5447 17.0566 14.4467C16.9468 14.2271 16.8736 14.2637 16.8736 14.5565C16.837 14.9957 16.8736 15.3983 16.9468 15.8009H16.7272C14.2383 15.8009 12.1886 13.7512 12.1886 11.2624C12.1886 8.77349 14.2383 6.72382 16.7272 6.72382C19.2161 6.72382 21.2657 8.77349 21.2657 11.2624C21.2657 11.4088 21.2657 11.5918 21.2291 11.7748C20.8631 11.7016 20.2409 11.7016 19.7651 11.7382C19.5821 11.7382 19.5821 11.8114 19.7285 11.848C21.1925 12.1408 22.2174 13.0558 22.4736 14.7395C22.4736 14.8127 22.5102 14.8127 22.5468 14.7761C23.1324 13.7512 23.4984 12.5434 23.4984 11.2624C23.4984 7.45585 20.4239 4.38135 16.6174 4.38135C12.8109 4.38135 9.73637 7.49245 9.73637 11.2624ZM21.5951 14.0807C21.8513 14.1905 21.9611 14.5565 21.9611 14.7395C21.9977 15.0323 21.9245 15.1787 21.8147 15.1787C21.7049 15.1787 21.5585 15.0689 21.4121 14.8127C21.2657 14.5565 21.1925 14.3003 21.2657 14.1539C21.3755 14.0807 21.4853 14.0441 21.5951 14.0807ZM20.0945 15.2153C20.2409 15.2153 20.4239 15.2885 20.6069 15.4349C20.8997 15.6911 21.0095 15.9839 20.8631 16.2035C20.7899 16.3133 20.6069 16.3865 20.4605 16.3865C20.2775 16.3865 20.0945 16.3133 19.9847 16.2035C19.6918 15.9473 19.6186 15.5813 19.8017 15.3617C19.8383 15.2885 19.9481 15.2153 20.0945 15.2153Z" fill="#F28A1A"/>
</svg>
