<svg width="35" height="24" viewBox="0 0 35 24" fill="none" xmlns="http://www.w3.org/2000/svg">
<rect x="0.243409" y="0.243409" width="33.5905" height="22.8805" rx="2.6775" fill="white" stroke="#EAEBED" stroke-width="0.486818"/>
<path fill-rule="evenodd" clip-rule="evenodd" d="M12.8201 15.7326C12.9727 15.6534 13.2319 15.5494 13.5066 15.5494C14.137 15.5494 14.4778 15.9751 14.4778 16.7672C14.4778 17.6926 14.0203 18.1431 13.2829 18.1431C13.0133 18.1431 12.5964 18.059 12.2912 17.9003V14.4457L12.8201 14.3219V15.7326ZM12.8151 17.7173C12.9777 17.7866 13.1558 17.7964 13.283 17.7964C13.6592 17.7964 13.944 17.5688 13.944 16.7672C13.944 16.1384 13.7101 15.9355 13.3694 15.9355C13.1659 15.9355 13.0186 15.99 12.8151 16.0989V17.7173ZM7.39919 15.6136H7.4348L8.12621 18.0836H8.67534L9.49923 14.5742H8.90422L8.38558 17.1927H8.35014L7.64318 14.5742H7.19063L6.52962 17.1927H6.494L5.92446 14.5742H5.355L6.17879 18.0836H6.72783L7.39919 15.6136ZM11.7525 17.9152V17.5391C11.4728 17.7024 11.2187 17.7964 10.9441 17.7964C10.4203 17.7964 10.1712 17.534 10.1712 16.9401H11.8288V16.7571C11.8288 15.9504 11.4372 15.5494 10.8017 15.5494C10.039 15.5494 9.64744 16.0939 9.64744 16.8461C9.64744 17.6283 9.99827 18.1431 10.8525 18.1431C11.2187 18.1431 11.5237 18.0441 11.7525 17.9152ZM11.3457 16.6086H10.1815C10.2373 16.1137 10.4761 15.8811 10.7865 15.8811C11.0611 15.8811 11.3205 16.0888 11.3457 16.6086ZM16.817 17.3411H16.7914L15.6524 14.5742H15.0372V18.0836H15.4948V15.5989H15.5405L16.578 18.0836H16.9033L17.9407 15.5395H17.9865V18.0836H18.5357V14.5742H17.9051L16.817 17.3411ZM19.0951 16.8461C19.0951 15.9799 19.5833 15.5494 20.2545 15.5494C20.9257 15.5494 21.414 15.9799 21.414 16.8461C21.414 17.6926 20.9512 18.1431 20.2545 18.1431C19.5577 18.1431 19.0951 17.6926 19.0951 16.8461ZM20.8799 16.8461C20.8799 16.178 20.6001 15.8959 20.2544 15.8959C19.9188 15.8959 19.6289 16.178 19.6289 16.8461C19.6289 17.5244 19.8935 17.7964 20.2544 17.7964C20.6154 17.7964 20.8799 17.5244 20.8799 16.8461ZM23.1933 15.5494C22.6088 15.5494 22.1256 15.782 21.8968 15.9156V18.0836H22.4257V16.1235C22.5833 16.0346 22.8426 15.9453 23.0461 15.9453C23.3054 15.9453 23.5035 16.0146 23.5035 16.4057V18.0836H24.0324V16.2917C24.0324 15.782 23.8037 15.5494 23.1933 15.5494ZM26.6103 17.5391V17.9152C26.3816 18.0441 26.0767 18.1431 25.7104 18.1431C24.8563 18.1431 24.5053 17.6283 24.5053 16.8461C24.5053 16.0939 24.897 15.5494 25.6596 15.5494C26.2954 15.5494 26.687 15.9504 26.687 16.7571V16.9401H25.0293C25.0293 17.534 25.2784 17.7964 25.8021 17.7964C26.0767 17.7964 26.3309 17.7024 26.6103 17.5391ZM25.0394 16.6086H26.2038C26.1785 16.0888 25.919 15.8811 25.6444 15.8811C25.3341 15.8811 25.0954 16.1137 25.0394 16.6086ZM29.2091 15.6335H28.665L28.0851 17.4548H28.0548L27.4039 15.6335H26.8446L27.8209 18.1083C27.6987 18.4745 27.4853 18.742 27.1395 18.742V19.1477C27.724 19.1477 28.0343 18.7915 28.2886 18.1083L29.2091 15.6335Z" fill="#0068A3"/>
<path fill-rule="evenodd" clip-rule="evenodd" d="M16.9411 4.19958C17.6409 4.19958 18.3036 4.35821 18.8938 4.63982C18.9865 4.68263 19.079 4.72972 19.1717 4.78172L18.7614 5.13914L18.145 4.51875L17.1047 5.42198L16.4867 4.76553L14.5488 6.46589L15.7912 7.79868L15.303 8.21668L16.5267 9.55148L16.0413 9.96851L17.79 11.8631L18.828 10.9329L19.7254 11.9297C19.5469 12.0648 19.3525 12.1919 19.1383 12.3094C18.4893 12.6696 17.7393 12.8759 16.9411 12.8759C14.4864 12.8759 12.4844 10.9269 12.4844 8.53786C12.4844 6.1483 14.4864 4.19958 16.9411 4.19958ZM16.1289 8.26359L17.1886 7.33463L18.1429 8.36645L17.0832 9.29507L16.1289 8.26359ZM17.9423 9.11737L16.8825 10.0461L17.8369 11.0779L18.8967 10.1489L17.9423 9.11737ZM15.3706 6.50195L16.4304 5.57325L17.3844 6.60481L16.3246 7.53352L15.3706 6.50195ZM18.1102 5.30556L17.3154 6.00202L18.031 6.77595L18.8258 6.07923L18.1102 5.30556ZM18.7276 9.19274L19.5227 8.49602L20.2383 9.26986L19.4434 9.96641L18.7276 9.19274ZM20.2214 10.0587L19.4268 10.7555L20.1424 11.5289L20.9372 10.8324L20.2214 10.0587ZM19.7469 7.17382L20.2768 6.70942L20.7538 7.2252L20.2242 7.68951L19.7469 7.17382ZM19.5998 5.17695L19.0699 5.64126L19.5469 6.15704L20.0769 5.69274L19.5998 5.17695ZM20.4243 8.70628L20.9542 8.24188L21.4313 8.75758L20.9014 9.22197L20.4243 8.70628ZM18.8427 6.86113L18.0479 7.55794L18.7637 8.33135L19.5583 7.6348L18.8427 6.86113Z" fill="#0068A3"/>
</svg>
